<?xml version="1.0" encoding="utf-8"?>
<!-- Generator: Adobe Illustrator 23.0.3, SVG Export Plug-In . SVG Version: 6.00 Build 0)  -->
<svg version="1.1" id="Wordmark" xmlns="http://www.w3.org/2000/svg" xmlns:xlink="http://www.w3.org/1999/xlink" x="0px" y="0px"
	 viewBox="0 0 311.81 73.7" style="enable-background:new 0 0 311.81 73.7;" xml:space="preserve">
<style type="text/css">
	.st0{fill:#DA002D;}
</style>
<g>
	<path class="st0" d="M90.43,58.59h13.79L85.49,14.82H73.81L55.53,58.59h13.28L79.4,30.48L90.43,58.59z M233.94,36.78
		c0,6.45-4.42,11.81-11.1,11.81c-6.6,0-11.1-5.51-11.1-11.81c0-6.38,4.42-11.88,11.03-11.88C229.37,24.9,233.94,30.55,233.94,36.78
		L233.94,36.78z M246.27,36.85c0-12.61-9.65-22.68-23.43-22.68c-13.64,0-23.51,10.21-23.51,22.68c0,12.68,9.72,22.68,23.44,22.68
		C236.4,59.53,246.27,49.38,246.27,36.85L246.27,36.85z M166.32,37c0-6.45,4.43-11.81,10.88-11.81c2.18,0,4.28,0.58,5.8,1.52
		l4.79-9.78c-2.18-1.38-5.95-2.68-10.88-2.68c-13.28,0-23,10.22-23,22.68c0,13.11,9.14,22.6,22.85,22.6
		c12.41,0,18.79-7.61,20.82-15.14l-9.94-4.06c-1.31,4.28-4.64,8.33-10.52,8.33C170.74,48.66,166.32,43.44,166.32,37L166.32,37z
		 M26.58,37c0-6.45,4.42-11.81,10.88-11.81c2.18,0,4.28,0.58,5.8,1.52l4.79-9.78c-2.18-1.38-5.95-2.68-10.88-2.68
		c-13.28,0-23,10.22-23,22.68c0,13.11,9.14,22.6,22.85,22.6c12.41,0,18.79-7.61,20.82-15.14l-9.94-4.06
		c-1.31,4.28-4.64,8.33-10.52,8.33C31,48.66,26.58,43.44,26.58,37L26.58,37z M138.24,58.59h10.52V15.12h-11.68v23.91l-18.14-23.91
		h-11.25v43.47h11.68v-24.7L138.24,58.59z M297.64,58.59V15.12h-12.77L274.49,32l-10.38-16.88h-12.77v43.47h11.83V33.73l11.1,16.88
		h0.22l11.17-17.03v25H297.64z"/>
</g>
</svg>
